<?xml version="1.0" encoding="utf-8"?>
<!-- Generator: Adobe Illustrator 28.0.0, SVG Export Plug-In . SVG Version: 6.00 Build 0)  -->
<svg version="1.1" id="Layer_1" xmlns="http://www.w3.org/2000/svg" xmlns:xlink="http://www.w3.org/1999/xlink" x="0px" y="0px"
	 viewBox="0 0 500 128.3" style="enable-background:new 0 0 500 128.3;" xml:space="preserve">
<style type="text/css">
	.st0{fill:#FFFFFF;}
	.st1{fill:#1F375F;}
	.st2{fill:#C7202F;}
	.st3{fill:none;stroke:#858485;stroke-width:0.75;stroke-miterlimit:10;}
</style>
<g>
	<g>
		<g>
			<path class="st0" d="M139.6,61.7L136,48.3l-1.7-0.2v-2h6.7v2l-1.7,0.2l1.8,7.3l0.3,1.2l0.1,0l0.3-1.2l3.1-9.6h2.5l3.2,9.9l0.3,1
				h0.1l0.3-1l1.9-7.6l-1.8-0.2v-2h6.5v2l-1.6,0.2l-3.7,13.4h-3.1l-2.8-8.6l-0.4-1.2h-0.1l-0.4,1.3l-2.9,8.5H139.6z"/>
			<path class="st0" d="M164.9,61.9c-1.1,0-2-0.2-2.9-0.6c-0.9-0.4-1.6-0.9-2.3-1.7c-0.6-0.7-1.1-1.6-1.5-2.5c-0.3-1-0.5-2-0.5-3.1
				v-0.2c0-1.1,0.2-2.2,0.5-3.1c0.3-1,0.8-1.8,1.5-2.5c0.6-0.7,1.4-1.3,2.3-1.7c0.9-0.4,1.9-0.6,2.9-0.6s2,0.2,2.9,0.6
				c0.9,0.4,1.7,1,2.3,1.7c0.7,0.7,1.2,1.5,1.5,2.5c0.4,1,0.5,2,0.5,3.1V54c0,1.1-0.2,2.2-0.5,3.1c-0.4,1-0.9,1.8-1.5,2.5
				c-0.7,0.7-1.4,1.3-2.3,1.7C167,61.7,166,61.9,164.9,61.9z M164.9,59.3c0.8,0,1.5-0.2,2.1-0.7c0.6-0.4,1-1.1,1.3-1.8
				c0.3-0.8,0.4-1.7,0.4-2.8v-0.3c0-1-0.1-1.9-0.4-2.7c-0.3-0.8-0.7-1.4-1.3-1.8c-0.6-0.4-1.3-0.7-2.1-0.7c-0.9,0-1.6,0.2-2.1,0.7
				c-0.6,0.4-1,1-1.2,1.8c-0.3,0.8-0.4,1.7-0.4,2.7V54c0,1,0.1,2,0.4,2.8s0.7,1.4,1.3,1.8C163.4,59.1,164.1,59.3,164.9,59.3z"/>
			<path class="st0" d="M181.1,61.9c-1.1,0-2-0.2-2.9-0.6c-0.9-0.4-1.6-0.9-2.3-1.7c-0.6-0.7-1.1-1.6-1.5-2.5c-0.3-1-0.5-2-0.5-3.1
				v-0.2c0-1.1,0.2-2.2,0.5-3.1c0.3-1,0.8-1.8,1.5-2.5c0.6-0.7,1.4-1.3,2.3-1.7c0.9-0.4,1.9-0.6,2.9-0.6c1.1,0,2,0.2,2.9,0.6
				c0.9,0.4,1.7,1,2.3,1.7c0.7,0.7,1.2,1.5,1.5,2.5c0.4,1,0.5,2,0.5,3.1V54c0,1.1-0.2,2.2-0.5,3.1c-0.4,1-0.9,1.8-1.5,2.5
				c-0.7,0.7-1.4,1.3-2.3,1.7C183.1,61.7,182.1,61.9,181.1,61.9z M181.1,59.3c0.8,0,1.5-0.2,2.1-0.7c0.6-0.4,1-1.1,1.3-1.8
				c0.3-0.8,0.4-1.7,0.4-2.8v-0.3c0-1-0.1-1.9-0.4-2.7c-0.3-0.8-0.7-1.4-1.3-1.8c-0.6-0.4-1.3-0.7-2.1-0.7c-0.9,0-1.6,0.2-2.1,0.7
				s-1,1-1.2,1.8c-0.3,0.8-0.4,1.7-0.4,2.7V54c0,1,0.1,2,0.4,2.8c0.3,0.8,0.7,1.4,1.3,1.8C179.5,59.1,180.2,59.3,181.1,59.3z"/>
			<path class="st0" d="M190.2,61.7v-2l1.6-0.3V48.5l-1.6-0.3v-2h1.6h3.4h1.9v2l-1.9,0.3v10.6h4l0.1-2.2h2.6v4.9H190.2z"/>
			<path class="st0" d="M207.8,61.7l-3.6-13.4l-1.7-0.2v-2h6.7v2l-1.7,0.2l1.8,7.3l0.3,1.2l0.1,0l0.3-1.2l3.1-9.6h2.5l3.2,9.9l0.3,1
				h0.1l0.3-1l1.9-7.6l-1.8-0.2v-2h6.5v2l-1.6,0.2l-3.7,13.4h-3.1l-2.8-8.6l-0.4-1.2h-0.1l-0.4,1.3l-2.9,8.5H207.8z"/>
			<path class="st0" d="M227.9,61.7v-2l1.6-0.3V48.5l-1.6-0.3v-2h6.7v2l-1.6,0.3v10.9l1.6,0.3v2H227.9z"/>
			<path class="st0" d="M244.5,61.9c-1.5,0-2.8-0.3-4-0.9c-1.1-0.6-2-1.5-2.7-2.6c-0.6-1.1-1-2.5-1-4.1v-0.6c0-1.5,0.3-2.8,0.9-4
				s1.5-2.1,2.6-2.7c1.1-0.7,2.4-1,4-1c1.1,0,2.1,0.1,3,0.4c1,0.3,1.8,0.8,2.6,1.4v3.9h-2.5l-0.3-2.3c-0.2-0.2-0.5-0.3-0.8-0.4
				c-0.3-0.1-0.6-0.2-0.9-0.3c-0.3-0.1-0.7-0.1-1-0.1c-0.8,0-1.6,0.2-2.2,0.6c-0.6,0.4-1.1,1-1.4,1.7c-0.3,0.8-0.5,1.7-0.5,2.7v0.7
				c0,1,0.2,1.9,0.5,2.7c0.3,0.8,0.8,1.4,1.5,1.8c0.6,0.4,1.4,0.6,2.2,0.6c0.4,0,0.9,0,1.3-0.1c0.4-0.1,0.9-0.2,1.2-0.4l0.4-2.2h2.5
				v3.8c-0.6,0.4-1.4,0.8-2.3,1.1C246.8,61.8,245.7,61.9,244.5,61.9z"/>
			<path class="st0" d="M252.6,61.7v-2l1.6-0.3V48.5l-1.6-0.3v-2h6.7v2l-1.6,0.3v4.2h6v-4.2l-1.6-0.3v-2h1.6h3.4h1.6v2l-1.6,0.3
				v10.9l1.6,0.3v2H262v-2l1.6-0.3v-4h-6v4l1.6,0.3v2H252.6z"/>
			<path class="st0" d="M134.6,83.9v-2l1.6-0.3V70.7l-1.6-0.3v-2h6.7v2l-1.6,0.3v10.9l1.6,0.3v2H134.6z"/>
			<path class="st0" d="M144.6,83.9v-2l1.6-0.3V70.7l-1.6-0.3v-2h1.6h3.5l6.5,10.4l0.1,0v-8l-2-0.3v-2h5.1h1.6v2l-1.6,0.3v13.2H156
				l-6.7-10.2l-0.1,0v7.9l2,0.3v2H144.6z"/>
			<path class="st0" d="M170.6,84.2c-1.2,0-2.3-0.1-3.3-0.4c-1-0.3-1.9-0.7-2.9-1.4v-3.9h2.7l0.3,2.2c0.3,0.3,0.7,0.5,1.3,0.7
				c0.6,0.2,1.2,0.3,1.9,0.3c0.5,0,1-0.1,1.3-0.2c0.4-0.1,0.6-0.3,0.8-0.6c0.2-0.3,0.3-0.6,0.3-0.9c0-0.3-0.1-0.6-0.3-0.9
				c-0.2-0.3-0.4-0.5-0.8-0.7s-0.9-0.5-1.5-0.7c-1.3-0.4-2.3-0.8-3.2-1.2c-0.8-0.4-1.5-1-1.9-1.6c-0.4-0.6-0.6-1.3-0.6-2.2
				c0-0.9,0.2-1.6,0.7-2.3c0.5-0.6,1.1-1.2,2-1.5c0.8-0.4,1.8-0.6,2.9-0.6c1.2,0,2.3,0.1,3.3,0.4c0.9,0.3,1.8,0.7,2.5,1.3v3.6h-2.6
				l-0.4-2.1c-0.3-0.1-0.6-0.3-1.1-0.4c-0.5-0.1-1-0.2-1.5-0.2c-0.5,0-0.9,0.1-1.2,0.2c-0.4,0.1-0.6,0.3-0.9,0.6
				c-0.2,0.3-0.3,0.6-0.3,1c0,0.3,0.1,0.6,0.3,0.8c0.2,0.2,0.5,0.5,0.9,0.7c0.4,0.2,1,0.5,1.8,0.7c1.7,0.5,3.1,1.1,4,1.9
				c0.9,0.8,1.4,1.8,1.4,3.1c0,0.9-0.2,1.7-0.7,2.3c-0.5,0.6-1.2,1.1-2.1,1.5C172.8,84,171.7,84.2,170.6,84.2z"/>
			<path class="st0" d="M183.2,83.9v-2l1.6-0.3V71h-2.6l-0.1,1.8h-2.6v-4.4h14.2v4.4H191l-0.1-1.8h-2.6v10.6l1.6,0.3v2H183.2z"/>
			<path class="st0" d="M196.7,83.9v-2l1.6-0.3V70.7l-1.6-0.3v-2h6.7v2l-1.6,0.3v10.9l1.6,0.3v2H196.7z"/>
			<path class="st0" d="M210.1,83.9v-2l1.6-0.3V71h-2.6l-0.1,1.8h-2.6v-4.4h14.2v4.4H218l-0.1-1.8h-2.6v10.6l1.6,0.3v2H210.1z"/>
			<path class="st0" d="M231.5,84.2c-1.3,0-2.4-0.2-3.4-0.6c-1-0.4-1.7-1.1-2.2-1.9c-0.5-0.8-0.8-1.8-0.8-3v-7.9l-1.6-0.3v-2h6.7v2
				l-1.6,0.3v7.9c0,0.7,0.1,1.2,0.4,1.6c0.2,0.4,0.6,0.8,1,1c0.4,0.2,1,0.3,1.6,0.3c0.6,0,1.2-0.1,1.6-0.3c0.4-0.2,0.8-0.5,1-1
				c0.2-0.4,0.4-1,0.4-1.6v-7.9l-1.6-0.3v-2h6.7v2l-1.6,0.3v7.9c0,1.2-0.3,2.2-0.8,3c-0.5,0.8-1.3,1.5-2.3,1.9
				C233.9,84,232.8,84.2,231.5,84.2z"/>
			<path class="st0" d="M246.1,83.9v-2l1.6-0.3V71h-2.6l-0.1,1.8h-2.6v-4.4h14.2v4.4H254l-0.1-1.8h-2.6v10.6l1.6,0.3v2H246.1z"/>
			<path class="st0" d="M259.6,83.9v-2l1.6-0.3V70.7l-1.6-0.3v-2h12.3v4.4h-2.6l-0.1-1.7h-4.5v3.6h5.1v2.6h-5.1v4.1h4.7l0.1-1.8h2.6
				v4.4H259.6z"/>
		</g>
		<g>
			<path class="st0" d="M138.8,38.3V37l1.7-0.3V24.3H137l-0.3,2.2h-1.6v-3.8h13v3.8h-1.6l-0.3-2.2h-3.5v12.4l1.7,0.3v1.3H138.8z"/>
			<path class="st0" d="M150.7,38.3V37l1.7-0.3V24.4l-1.7-0.3v-1.4h5.6v1.4l-1.7,0.3v5.4h7.5v-5.4l-1.7-0.3v-1.4h1.7h2.1h1.7v1.4
				l-1.7,0.3v12.3l1.7,0.3v1.3h-5.6V37l1.7-0.3v-5.2h-7.5v5.2l1.7,0.3v1.3H150.7z"/>
			<path class="st0" d="M168.3,38.3V37l1.7-0.3V24.4l-1.7-0.3v-1.4h11.5v3.7h-1.7l-0.2-2.1h-5.8v5.1h5.8v1.7h-5.8v5.6h6.1l0.2-2.2
				h1.7v3.7H168.3z"/>
		</g>
		<path class="st1" d="M102.5,3.3C76.1-1.1,49.2-1.1,22.8,3.2L7.9,5.6c0,0,0,32.1,0,54.1c0,37.8,54.8,68.5,54.8,68.5
			s54.8-30.7,54.8-68.5s0-54,0-54L102.5,3.3z"/>
		<g>
			<path class="st0" d="M36.5,93v-1.8l1.8-0.3V78.5h-3.4l-0.3,2.1h-2.2v-4.3H47v4.3h-2.2l-0.3-2.1h-3.4v12.4l1.8,0.3V93H36.5z"/>
			<path class="st0" d="M59.6,93l-3.9-14.7l-1.6-0.2v-1.8h6.2v1.8l-1.8,0.3l2.1,8.6l0.4,1.8l0.1,0l0.5-1.8l3.3-10.6h2.3l3.4,10.8
				l0.5,1.7h0.1l0.4-1.7l2.1-8.7l-1.9-0.3v-1.8h6.1v1.8l-1.5,0.2L72.5,93h-2.7l-3.4-10.5l-0.4-1.5H66l-0.4,1.5L62.2,93H59.6z"/>
			<path class="st0" d="M83.4,93v-1.8l1.8-0.3V78.4l-1.8-0.3v-1.8h6.5v1.8l-1.8,0.3v12.5l1.8,0.3V93H83.4z"/>
		</g>
		<g>
			<path class="st2" d="M40.9,17.9h-33H0v69.9h17.3c-0.6-1-1.3-2-1.8-3H3V20.8h4.9h33c7.8,0,14.6,4.2,18.3,10.4h3.4
				C58.6,23.3,50.4,17.9,40.9,17.9z"/>
			<path class="st2" d="M117.4,17.9h-33c-9.5,0-17.7,5.5-21.7,13.4h3.4c3.7-6.2,10.5-10.4,18.3-10.4h33h4.9v63.9h-12.5
				c-0.6,1-1.2,2-1.8,3h17.3V17.9H117.4z"/>
		</g>
		<g>
			<path class="st0" d="M63,30.2c-8.4,0-15.4,6.3-16.6,14.4l-7.2,1.6l0,0L22.5,56.5L15.1,57v3.8l9,0.5L41.2,53l5.9-0.8
				c2.2,6.7,8.5,11.5,15.9,11.5c9.2,0,16.8-7.5,16.8-16.8S72.3,30.2,63,30.2z M51.8,41.6l6.6,4.1l-7.7,0.1
				C50.8,44.3,51.2,42.9,51.8,41.6z M52.9,39.7c0.9-1.2,1.9-2.2,3.1-3.1l3.6,6.8L52.9,39.7z M57.9,35.6c1.3-0.6,2.7-1,4.2-1.1
				l-0.3,7.7L57.9,35.6z M68.4,35.7l-4.1,6.5l-0.1-7.7C65.7,34.7,67.1,35.1,68.4,35.7z M70.2,36.8c1.2,0.8,2.2,1.9,3.1,3.1l-6.8,3.6
				L70.2,36.8z M50.6,47.9l7.7,0.3l-6.6,3.9C51.1,50.8,50.7,49.4,50.6,47.9z M52.8,54l6.8-3.6l-3.8,6.7C54.6,56.3,53.6,55.2,52.8,54
				z M57.7,58.2l4.1-6.6l0.1,7.7C60.4,59.2,59,58.8,57.7,58.2z M61.4,46.9c0-0.9,0.7-1.7,1.7-1.7c0.9,0,1.7,0.7,1.7,1.7
				c0,0.9-0.7,1.7-1.7,1.7C62.1,48.6,61.4,47.9,61.4,46.9z M64,59.4l0.3-7.7l4,6.6C66.9,58.9,65.5,59.3,64,59.4z M70.1,57.2
				l-3.6-6.8l6.7,3.8C72.4,55.4,71.3,56.4,70.1,57.2z M74.3,52.3l-6.6-4.1l7.7-0.1C75.3,49.6,74.9,51,74.3,52.3z M67.7,45.7l6.6-4
				c0.6,1.3,1,2.7,1.1,4.2L67.7,45.7z"/>
			<path class="st0" d="M103.9,31.6c-0.1-1-0.4-1.8-0.6-1.7c0,0,0,0,0,0c0,0-1.8-1.8-2.1-1.8c-0.2,0-0.4,0.1-0.6,0.4l0,0l-1.1,1
				l-26.7,2.9c2.2,1.5,4,3.4,5.4,5.6l21.9-3.3v0l1.3,0.9l0,0c0.2,0.1,0.4,0.2,0.6,0.2c0.3,0,1.7-2.2,1.7-2.2l0,0c0,0,0,0,0,0
				C103.9,33.4,104,32.6,103.9,31.6z"/>
			<path class="st0" d="M32,42.9c0.9-0.1,1.6-0.6,2-1.1l1.3-0.2c0.6,2.2,1.8,3.8,3,3.6c0.6-0.1,1.1-0.6,1.4-1.4l6.1-0.9
				c0.7-3.1,2.3-5.9,4.5-8.1L38.6,36c-0.5-0.6-1.1-1-1.7-0.9c-1.2,0.2-2,2.1-1.8,4.5l-1.4,0.2c-0.5-0.4-1.3-0.6-2.2-0.4
				c-1.4,0.2-2.4,1.2-2.2,2.2C29.4,42.6,30.6,43.2,32,42.9z"/>
		</g>
		<g>
			<path class="st0" d="M135,106.3v-1.9l1.7-0.4V92.6l-1.7-0.4v-1.9h1.7h5.3c1.4,0,2.7,0.3,3.8,1c1.1,0.7,1.9,1.6,2.6,2.8
				c0.6,1.2,0.9,2.5,0.9,4.1v0.3c0,1.5-0.3,2.9-0.9,4.1c-0.6,1.2-1.5,2.1-2.5,2.8c-1.1,0.7-2.3,1-3.8,1H135z M139.9,103.9h2
				c0.9,0,1.6-0.2,2.3-0.7c0.6-0.5,1.1-1.1,1.4-1.9c0.3-0.8,0.5-1.7,0.5-2.8v-0.3c0-1.1-0.2-2-0.5-2.8c-0.3-0.8-0.8-1.4-1.4-1.9
				c-0.6-0.5-1.4-0.7-2.3-0.7h-2V103.9z"/>
			<path class="st0" d="M158.6,106.5c-1.3,0-2.4-0.2-3.4-0.7c-1-0.4-1.7-1.1-2.2-1.9c-0.5-0.8-0.8-1.9-0.8-3v-8.4l-1.7-0.3v-1.9h6.6
				v1.9l-1.7,0.3v8.4c0,0.7,0.1,1.3,0.4,1.8c0.3,0.5,0.6,0.8,1.1,1.1c0.5,0.2,1,0.3,1.7,0.3c0.7,0,1.3-0.1,1.7-0.3
				c0.5-0.2,0.8-0.6,1.1-1.1c0.3-0.5,0.4-1.1,0.4-1.8v-8.4l-1.7-0.3v-1.9h6.6v1.9l-1.7,0.3v8.4c0,1.2-0.3,2.2-0.8,3.1
				c-0.5,0.8-1.3,1.5-2.3,1.9C161,106.3,159.9,106.5,158.6,106.5z"/>
			<path class="st0" d="M167.8,106.3v-1.9l1.7-0.3V92.6l-1.7-0.3v-1.9h1.7h5.4c1.9,0,3.4,0.4,4.4,1.1c1.1,0.7,1.6,1.8,1.6,3.3
				c0,0.7-0.2,1.4-0.6,2c-0.4,0.6-1,1-1.7,1.3c0.6,0.1,1.2,0.4,1.6,0.7c0.4,0.4,0.7,0.8,1,1.3c0.2,0.5,0.3,1.1,0.3,1.6
				c0,1.5-0.5,2.7-1.5,3.5c-1,0.8-2.4,1.2-4.3,1.2H167.8z M172.7,97h2.3c0.9,0,1.5-0.2,2-0.5c0.5-0.4,0.7-0.9,0.7-1.5
				c0-0.7-0.2-1.3-0.7-1.6c-0.5-0.4-1.2-0.5-2.1-0.5h-2.2V97z M172.7,103.8h3c0.9,0,1.5-0.2,1.9-0.6c0.4-0.4,0.7-0.9,0.7-1.6
				c0-0.5-0.1-1-0.3-1.3c-0.2-0.4-0.4-0.6-0.8-0.8c-0.3-0.2-0.8-0.3-1.3-0.3h-3.2V103.8z"/>
			<path class="st0" d="M182.4,106.3v-1.9l1.1-0.2l5.1-13.9h3.3l5.1,13.9l1.1,0.2v1.9h-5.5v-1.9l1.1-0.2l-0.7-2.2h-5.6l-0.7,2.2
				l1.1,0.2v1.9H182.4z M188.2,99.6h4.1l-1.9-5.5l-0.2-0.5h-0.1l-0.2,0.5L188.2,99.6z"/>
			<path class="st0" d="M199.2,106.3v-1.9l1.7-0.3V92.6l-1.7-0.3v-1.9h6.6v1.9l-1.7,0.3v11.5l1.7,0.3v1.9H199.2z"/>
		</g>
	</g>
	<line class="st3" x1="323" y1="111.3" x2="323" y2="11"/>
	<g>
		<g>
			<g>
				<path class="st0" d="M376.2,32.6c-0.3,0.5-0.7,1-1.2,1.3c-0.5,0.4-1.1,0.6-1.8,0.8c-0.7,0.2-1.5,0.3-2.4,0.3h-7.3V19.5h7.2
					c1.6,0,2.8,0.4,3.7,1.1s1.4,1.7,1.4,2.9v0c0,0.4-0.1,0.8-0.2,1.2c-0.1,0.3-0.3,0.6-0.4,0.9c-0.2,0.3-0.4,0.5-0.6,0.7
					c-0.2,0.2-0.5,0.4-0.8,0.5c0.9,0.3,1.6,0.8,2.1,1.4c0.5,0.6,0.8,1.4,0.8,2.4v0C376.6,31.4,376.4,32.1,376.2,32.6z M372.4,24.1
					c0-0.5-0.2-0.9-0.6-1.2c-0.4-0.3-0.9-0.4-1.7-0.4h-3.4v3.3h3.1c0.7,0,1.3-0.1,1.8-0.4C372.1,25.1,372.4,24.7,372.4,24.1
					L372.4,24.1z M373.2,30.3c0-0.5-0.2-0.9-0.6-1.2c-0.4-0.3-1-0.5-1.9-0.5h-3.9V32h4c0.7,0,1.3-0.1,1.8-0.4
					C373,31.3,373.2,30.9,373.2,30.3L373.2,30.3z"/>
				<path class="st0" d="M388.8,35l-3.3-4.9h-2.7V35h-3.4V19.5h7.1c1.8,0,3.3,0.4,4.3,1.3c1,0.9,1.5,2.1,1.5,3.7v0
					c0,1.2-0.3,2.3-0.9,3.1c-0.6,0.8-1.4,1.4-2.4,1.7l3.8,5.5H388.8z M388.8,24.8c0-0.7-0.2-1.3-0.7-1.7c-0.5-0.4-1.1-0.6-2-0.6
					h-3.4V27h3.4c0.8,0,1.5-0.2,1.9-0.6C388.6,26,388.8,25.5,388.8,24.8L388.8,24.8z"/>
				<path class="st0" d="M395.5,35V19.5h3.4V35H395.5z"/>
				<path class="st0" d="M409.7,22.7V35h-3.4V22.7h-4.7v-3.1h12.8v3.1H409.7z"/>
				<path class="st0" d="M417.2,35V19.5h3.4V35H417.2z"/>
				<path class="st0" d="M435.2,32.4c-0.3,0.6-0.7,1.1-1.2,1.5c-0.5,0.4-1.1,0.7-1.8,0.9c-0.7,0.2-1.5,0.3-2.3,0.3
					c-1.2,0-2.3-0.2-3.5-0.6c-1.1-0.4-2.2-1-3.1-1.9l2-2.4c0.7,0.6,1.4,1,2.2,1.4c0.7,0.3,1.6,0.5,2.4,0.5c0.7,0,1.3-0.1,1.6-0.4
					s0.6-0.6,0.6-1.1v0c0-0.2,0-0.4-0.1-0.6c-0.1-0.2-0.2-0.3-0.5-0.5c-0.2-0.1-0.5-0.3-1-0.4c-0.4-0.1-0.9-0.3-1.6-0.5
					c-0.8-0.2-1.5-0.4-2.1-0.6c-0.6-0.2-1.2-0.5-1.6-0.9c-0.4-0.3-0.8-0.8-1-1.3c-0.2-0.5-0.4-1.2-0.4-1.9v0c0-0.7,0.1-1.3,0.4-1.9
					c0.3-0.6,0.6-1.1,1.1-1.5c0.5-0.4,1-0.7,1.7-0.9c0.7-0.2,1.4-0.3,2.2-0.3c1.1,0,2.2,0.2,3.1,0.5c0.9,0.3,1.8,0.8,2.6,1.5
					l-1.8,2.6c-0.7-0.5-1.4-0.8-2-1.1c-0.7-0.3-1.3-0.4-2-0.4s-1.2,0.1-1.5,0.4c-0.3,0.3-0.5,0.6-0.5,1v0c0,0.2,0,0.5,0.1,0.7
					c0.1,0.2,0.3,0.3,0.5,0.5c0.3,0.1,0.6,0.3,1,0.4c0.4,0.1,1,0.3,1.6,0.5c0.8,0.2,1.5,0.4,2.1,0.7c0.6,0.3,1.1,0.6,1.5,0.9
					c0.4,0.4,0.7,0.8,1,1.3c0.2,0.5,0.3,1.1,0.3,1.7v0C435.6,31.2,435.5,31.8,435.2,32.4z"/>
				<path class="st0" d="M448.2,35v-6.2H442V35h-3.4V19.5h3.4v6.1h6.3v-6.1h3.4V35H448.2z"/>
			</g>
			<g>
				<path class="st0" d="M363.5,57.2V41.8h11.6v3h-8.3v3.1h7.3v3h-7.3v3.2h8.4v3H363.5z"/>
				<path class="st0" d="M391.9,52.5c-0.4,0.9-1,1.8-1.7,2.4c-0.7,0.7-1.6,1.2-2.6,1.6c-1,0.4-2.1,0.6-3.3,0.6h-6V41.8h6
					c1.2,0,2.3,0.2,3.3,0.6c1,0.4,1.9,0.9,2.6,1.6c0.7,0.7,1.3,1.5,1.7,2.4c0.4,0.9,0.6,1.9,0.6,3v0
					C392.5,50.6,392.3,51.6,391.9,52.5z M388.9,49.5c0-0.7-0.1-1.3-0.3-1.9s-0.5-1.1-0.9-1.5c-0.4-0.4-0.9-0.7-1.5-1
					c-0.6-0.2-1.2-0.3-1.9-0.3h-2.6v9.3h2.6c0.7,0,1.3-0.1,1.9-0.3c0.6-0.2,1.1-0.5,1.5-0.9s0.7-0.9,0.9-1.5
					C388.8,50.8,388.9,50.2,388.9,49.5L388.9,49.5z"/>
				<path class="st0" d="M408.2,53.5c-0.3,0.9-0.8,1.6-1.4,2.2c-0.6,0.6-1.3,1-2.1,1.3c-0.8,0.3-1.8,0.4-2.8,0.4
					c-2.1,0-3.7-0.6-4.9-1.7c-1.2-1.1-1.8-2.9-1.8-5.1v-8.8h3.4v8.7c0,1.3,0.3,2.2,0.9,2.9c0.6,0.6,1.4,1,2.4,1s1.9-0.3,2.4-0.9
					c0.6-0.6,0.9-1.5,0.9-2.8v-8.8h3.4v8.7C408.7,51.6,408.5,52.7,408.2,53.5z"/>
				<path class="st0" d="M424.5,55.8c-0.4,0.3-0.9,0.6-1.4,0.9c-0.5,0.2-1.1,0.4-1.7,0.6c-0.6,0.1-1.3,0.2-2,0.2
					c-1.1,0-2.2-0.2-3.2-0.6c-1-0.4-1.8-1-2.5-1.7c-0.7-0.7-1.3-1.6-1.7-2.5c-0.4-1-0.6-2-0.6-3.1v0c0-1.1,0.2-2.1,0.6-3.1
					c0.4-1,0.9-1.8,1.7-2.5c0.7-0.7,1.6-1.3,2.5-1.7s2.1-0.6,3.3-0.6c0.7,0,1.4,0.1,2,0.2c0.6,0.1,1.1,0.3,1.6,0.5
					c0.5,0.2,0.9,0.5,1.3,0.7c0.4,0.3,0.8,0.6,1.1,1l-2.2,2.5c-0.6-0.5-1.2-1-1.8-1.3c-0.6-0.3-1.3-0.5-2.1-0.5
					c-0.6,0-1.2,0.1-1.8,0.4c-0.6,0.2-1,0.6-1.4,1c-0.4,0.4-0.7,1-0.9,1.5c-0.2,0.6-0.3,1.2-0.3,1.9v0c0,0.7,0.1,1.3,0.3,1.9
					c0.2,0.6,0.5,1.1,0.9,1.5c0.4,0.4,0.9,0.8,1.4,1c0.6,0.3,1.2,0.4,1.8,0.4c0.9,0,1.6-0.2,2.2-0.5c0.6-0.3,1.2-0.8,1.8-1.3
					l2.2,2.2C425.3,55.1,424.9,55.5,424.5,55.8z"/>
				<path class="st0" d="M439.9,57.2l-1.4-3.5H432l-1.4,3.5h-3.5l6.6-15.5h3.1l6.6,15.5H439.9z M435.2,45.7l-2,5h4.1L435.2,45.7z"/>
				<path class="st0" d="M452.8,44.9v12.3h-3.4V44.9h-4.7v-3.1h12.8v3.1H452.8z"/>
				<path class="st0" d="M460.3,57.2V41.8h3.4v15.4H460.3z"/>
				<path class="st0" d="M482.6,52.6c-0.4,1-1,1.8-1.7,2.5c-0.7,0.7-1.6,1.3-2.6,1.7c-1,0.4-2.1,0.6-3.3,0.6c-1.2,0-2.3-0.2-3.3-0.6
					c-1-0.4-1.9-1-2.6-1.7c-0.7-0.7-1.3-1.6-1.7-2.5c-0.4-1-0.6-2-0.6-3.1v0c0-1.1,0.2-2.1,0.6-3.1c0.4-1,1-1.8,1.7-2.5
					c0.7-0.7,1.6-1.3,2.6-1.7c1-0.4,2.1-0.6,3.3-0.6c1.2,0,2.3,0.2,3.3,0.6s1.9,1,2.6,1.7c0.7,0.7,1.3,1.6,1.7,2.5
					c0.4,1,0.6,2,0.6,3.1v0C483.3,50.6,483.1,51.6,482.6,52.6z M479.7,49.5c0-0.7-0.1-1.3-0.3-1.9c-0.2-0.6-0.6-1.1-1-1.5
					c-0.4-0.4-0.9-0.8-1.5-1s-1.2-0.4-1.9-0.4c-0.7,0-1.3,0.1-1.9,0.4c-0.6,0.2-1.1,0.6-1.5,1c-0.4,0.4-0.7,1-0.9,1.5
					c-0.2,0.6-0.3,1.2-0.3,1.9v0c0,0.7,0.1,1.3,0.3,1.9c0.2,0.6,0.6,1.1,1,1.5c0.4,0.4,0.9,0.8,1.5,1c0.6,0.3,1.2,0.4,1.9,0.4
					c0.7,0,1.3-0.1,1.9-0.4c0.6-0.2,1.1-0.6,1.5-1c0.4-0.4,0.7-1,0.9-1.5C479.6,50.8,479.7,50.2,479.7,49.5L479.7,49.5z"/>
				<path class="st0" d="M497.1,57.2l-7.5-9.8v9.8h-3.4V41.8h3.1l7.2,9.5v-9.5h3.4v15.4H497.1z"/>
			</g>
			<g>
				<path class="st0" d="M374.7,79c-1.1,0.5-2.3,0.7-3.8,0.7c-1.2,0-2.3-0.2-3.3-0.6c-1-0.4-1.8-0.9-2.6-1.7
					c-0.7-0.7-1.3-1.5-1.7-2.5c-0.4-1-0.6-2-0.6-3.2v0c0-1.1,0.2-2.1,0.6-3.1c0.4-1,1-1.8,1.7-2.5c0.7-0.7,1.6-1.3,2.6-1.7
					c1-0.4,2.1-0.6,3.2-0.6c0.7,0,1.3,0,1.9,0.1c0.6,0.1,1.1,0.2,1.6,0.4c0.5,0.2,0.9,0.4,1.4,0.7c0.4,0.3,0.8,0.6,1.2,0.9l-2.1,2.6
					c-0.3-0.2-0.6-0.5-0.9-0.7c-0.3-0.2-0.6-0.4-0.9-0.5c-0.3-0.1-0.7-0.2-1-0.3c-0.4-0.1-0.8-0.1-1.2-0.1c-0.6,0-1.2,0.1-1.7,0.4
					c-0.5,0.3-1,0.6-1.4,1c-0.4,0.4-0.7,0.9-0.9,1.5s-0.3,1.2-0.3,1.9v0c0,0.7,0.1,1.4,0.3,2c0.2,0.6,0.6,1.1,1,1.6
					c0.4,0.4,0.9,0.8,1.5,1c0.6,0.2,1.2,0.4,1.9,0.4c1.3,0,2.3-0.3,3.2-0.9v-2.2h-3.4v-2.9h6.7v6.7C376.7,77.9,375.8,78.5,374.7,79z
					"/>
				<path class="st0" d="M390.1,79.4l-3.3-4.9h-2.7v4.9h-3.4V64h7.1c1.8,0,3.3,0.4,4.3,1.3c1,0.9,1.5,2.1,1.5,3.7v0
					c0,1.2-0.3,2.3-0.9,3.1c-0.6,0.8-1.4,1.4-2.4,1.7l3.8,5.5H390.1z M390.2,69.2c0-0.7-0.2-1.3-0.7-1.7c-0.5-0.4-1.1-0.6-2-0.6
					h-3.4v4.4h3.4c0.8,0,1.5-0.2,1.9-0.6C390,70.5,390.2,70,390.2,69.2L390.2,69.2z"/>
				<path class="st0" d="M411.8,74.8c-0.4,1-1,1.8-1.7,2.5c-0.7,0.7-1.6,1.3-2.6,1.7c-1,0.4-2.1,0.6-3.3,0.6c-1.2,0-2.3-0.2-3.3-0.6
					c-1-0.4-1.9-1-2.6-1.7c-0.7-0.7-1.3-1.6-1.7-2.5c-0.4-1-0.6-2-0.6-3.1v0c0-1.1,0.2-2.1,0.6-3.1c0.4-1,1-1.8,1.7-2.5
					c0.7-0.7,1.6-1.3,2.6-1.7c1-0.4,2.1-0.6,3.3-0.6c1.2,0,2.3,0.2,3.3,0.6s1.9,1,2.6,1.7c0.7,0.7,1.3,1.6,1.7,2.5
					c0.4,1,0.6,2,0.6,3.1v0C412.4,72.8,412.2,73.8,411.8,74.8z M408.9,71.7c0-0.7-0.1-1.3-0.3-1.9c-0.2-0.6-0.6-1.1-1-1.5
					c-0.4-0.4-0.9-0.8-1.5-1c-0.6-0.3-1.2-0.4-1.9-0.4c-0.7,0-1.3,0.1-1.9,0.4c-0.6,0.2-1.1,0.6-1.5,1c-0.4,0.4-0.7,1-0.9,1.5
					c-0.2,0.6-0.3,1.2-0.3,1.9v0c0,0.7,0.1,1.3,0.3,1.9c0.2,0.6,0.6,1.1,1,1.5c0.4,0.4,0.9,0.8,1.5,1c0.6,0.3,1.2,0.4,1.9,0.4
					c0.7,0,1.3-0.1,1.9-0.4c0.6-0.2,1.1-0.6,1.5-1c0.4-0.4,0.7-1,0.9-1.5C408.8,73,408.9,72.4,408.9,71.7L408.9,71.7z"/>
				<path class="st0" d="M428.2,75.8c-0.3,0.9-0.8,1.6-1.4,2.2s-1.3,1-2.1,1.3s-1.8,0.4-2.8,0.4c-2.1,0-3.7-0.6-4.9-1.7
					c-1.2-1.1-1.8-2.9-1.8-5.1V64h3.4v8.7c0,1.3,0.3,2.2,0.9,2.9c0.6,0.6,1.4,1,2.4,1c1,0,1.9-0.3,2.4-0.9c0.6-0.6,0.9-1.5,0.9-2.8
					V64h3.4v8.7C428.7,73.9,428.5,74.9,428.2,75.8z"/>
				<path class="st0" d="M443.8,71.7c-0.3,0.7-0.8,1.2-1.3,1.7c-0.6,0.5-1.2,0.8-2,1c-0.8,0.2-1.6,0.3-2.4,0.3h-2.6v4.6h-3.4V64h6.3
					c0.9,0,1.8,0.1,2.5,0.4c0.7,0.3,1.3,0.6,1.9,1.1c0.5,0.5,0.9,1,1.2,1.7c0.3,0.7,0.4,1.4,0.4,2.2v0
					C444.3,70.3,444.2,71,443.8,71.7z M440.9,69.4c0-0.8-0.2-1.3-0.7-1.7c-0.5-0.4-1.2-0.6-2-0.6h-2.6v4.7h2.7c0.9,0,1.5-0.2,2-0.7
					C440.7,70.6,440.9,70.1,440.9,69.4L440.9,69.4z"/>
			</g>
		</g>
		<g>
			<path class="st0" d="M369,103.9c-0.4-0.9-1-1.8-1.8-2.6c-0.7-0.9-1.1-1.4-1.1-1.6c0-0.3,0.4-0.7,1.2-1c0.4-0.2,0.7-0.3,0.9-0.4
				c0.5-0.3,1-0.8,1.3-1.5c0.3-0.7,0.5-1.5,0.5-2.3c0-0.7-0.1-1.2-0.3-1.6c-0.2-0.4-0.5-0.6-0.9-0.6c-0.5,0-1,0.4-1.5,1.2
				c-0.5,0.8-1.2,2.4-2.2,4.9c-0.2,1.4-0.5,2.6-0.9,3.6c-0.4,1-0.7,1.4-0.9,1.4c-0.1,0-0.1,0-0.2-0.1c0-0.1-0.1-0.2-0.1-0.3
				c0-0.3,0.2-0.9,0.5-2c0.4-1.1,0.8-2.4,1.4-3.9c0.9-2.2,1.5-3.6,2.1-4.3c0.5-0.7,1.1-1,1.8-1c0.5,0,0.9,0.3,1.3,0.8
				c0.3,0.5,0.5,1.2,0.5,2.1c0,1-0.2,1.8-0.5,2.5c-0.4,0.7-0.9,1.3-1.5,1.7c-0.3,0.2-0.6,0.3-1.1,0.5c-0.5,0.2-0.7,0.3-0.7,0.4
				c0,0,0.3,0.5,1,1.2c0.7,0.8,1.3,1.6,1.7,2.5L369,103.9z"/>
			<path class="st0" d="M375.4,100.5v0.7c-0.6,0.5-1.1,0.9-1.6,1.2c-0.4,0.3-0.8,0.5-1.1,0.7c-0.5,0.3-1,0.4-1.5,0.4
				c-0.5,0-0.9-0.2-1.2-0.5c-0.1-0.2-0.3-0.4-0.3-0.6c-0.1-0.2-0.1-0.5-0.1-0.8c0-0.5,0.1-0.9,0.3-1.4c0.2-0.4,0.5-0.9,1-1.3
				c0.5-0.5,0.9-0.8,1.4-1.1c0.2-0.1,0.5-0.2,0.7-0.3s0.4-0.1,0.6-0.1c0.3,0,0.6,0.1,0.8,0.2c0.2,0.2,0.3,0.4,0.3,0.7
				c0,0.7-0.4,1.4-1.1,2c-0.8,0.6-1.7,0.9-2.8,0.9h-0.3h-0.2l-0.1,0.2l0,0.2c0,0.4,0.1,0.7,0.3,0.9c0.2,0.2,0.5,0.3,0.8,0.3
				c0.4,0,0.9-0.1,1.4-0.4C373.3,102.1,374.2,101.5,375.4,100.5z M370.5,100.6l0.3,0h0.3c0.7,0,1.4-0.2,2.1-0.7
				c0.6-0.5,0.9-1,0.9-1.5c0-0.1,0-0.2-0.1-0.3c-0.1-0.1-0.2-0.1-0.4-0.1c-0.4,0-0.9,0.2-1.6,0.7C371.4,99.2,370.9,99.8,370.5,100.6
				z"/>
			<path class="st0" d="M375.9,101.8l0.7-1.6c-0.2,0.2-0.3,0.3-0.4,0.4c-0.1,0.1-0.3,0.2-0.4,0.3c-0.2,0.2-0.4,0.3-0.7,0.5v-0.7
				c0.5-0.4,0.9-0.7,1.3-1.1c0.4-0.4,0.6-0.6,0.6-0.6l1-2.4h-1.5l0.3-0.5h1.5l1-2.3l0.1-0.2c0.3-0.7,0.5-1,0.7-1
				c0.1,0,0.2,0,0.2,0.1c0.1,0.1,0.1,0.1,0.1,0.2c0,0.1,0,0.2-0.1,0.3c0,0.1-0.1,0.1-0.1,0.2c0,0.1-0.1,0.2-0.1,0.3l-1,2.3l1.2,0
				l-0.2,0.5l-1.2,0l-2.1,5.2l-0.1,0.2c-0.1,0.3-0.2,0.5-0.2,0.5c0,0.1,0,0.2,0.1,0.2c0,0,0.1,0.1,0.2,0.1c0.2,0,1-0.5,2.4-1.6
				l0.8-0.6v0.7c-2.1,1.5-3.3,2.3-3.8,2.3c-0.2,0-0.3,0-0.4-0.1c-0.1-0.1-0.1-0.2-0.1-0.4c0-0.2,0.1-0.4,0.2-0.8L375.9,101.8z"/>
			<path class="st0" d="M379.7,101.3v-0.7c0.3-0.2,0.5-0.4,0.8-0.7c0.3-0.3,0.6-0.6,0.9-1l2.9-6.3l0.2-0.4c0.3-0.6,0.5-0.9,0.7-0.9
				c0.1,0,0.1,0,0.2,0.1c0,0.1,0.1,0.1,0.1,0.2c0,0.2-0.4,1.1-1.2,2.8l-0.9,1.9l-2.5,5.3c1.6-1.6,2.8-2.7,3.6-3.3
				c0.8-0.7,1.4-1,1.7-1c0.1,0,0.1,0,0.2,0.1c0,0,0,0.1,0,0.1c0,0,0,0.1,0,0.2c0,0.1,0,0.1,0,0.2c0,0.1,0,0.1-0.1,0.2
				c0,0.1-0.1,0.2-0.1,0.3l-1.7,3.7l-0.1,0.2l0,0.1l0,0.1c0,0,0,0,0.1,0c0.1,0,0.4-0.2,0.9-0.5c0.5-0.4,1.2-0.9,2-1.5v0.7l-0.4,0.3
				c-1.8,1.4-2.9,2.1-3.2,2.1c-0.1,0-0.2,0-0.2-0.1c-0.1-0.1-0.1-0.2-0.1-0.3c0,0,0-0.1,0-0.2c0-0.1,0.1-0.2,0.2-0.4l1.6-3.4
				l0.2-0.3l0-0.1c0-0.1,0-0.1,0-0.1l0,0c-0.1,0-0.3,0.1-0.6,0.4c-0.4,0.3-0.7,0.6-1.1,1c-0.5,0.5-1,0.9-1.5,1.4
				c-0.4,0.5-0.9,0.9-1.2,1.3l-0.2,0.3c-0.3,0.4-0.6,0.7-0.9,0.7c-0.1,0-0.2,0-0.2-0.1c-0.1-0.1-0.1-0.2-0.1-0.3
				c0-0.2,0.2-0.7,0.7-1.6l0.5-1l-0.6,0.5C380,101.1,379.9,101.2,379.7,101.3z"/>
			<path class="st0" d="M388.1,102.1l-0.1,0.1l0,0.1c0,0.1,0,0.1,0,0.1c0,0,0,0,0.1,0c0.1,0,0.4-0.2,0.9-0.5c0.5-0.4,1.2-0.9,2-1.5
				v0.7l-0.4,0.3c-1.8,1.4-2.9,2.1-3.2,2.1c-0.1,0-0.2,0-0.2-0.1c-0.1-0.1-0.1-0.2-0.1-0.3c0-0.1,0-0.1,0-0.3c0-0.1,0.1-0.2,0.1-0.3
				l1-2l-0.6,0.5c-0.2,0.1-0.3,0.2-0.5,0.4v-0.7c0.4-0.3,0.8-0.6,1.1-0.9c0.3-0.3,0.5-0.6,0.6-0.7l0.7-1.5l0.7,0L388.1,102.1z
				 M390.4,96.4c-0.1,0-0.2,0-0.3-0.1c-0.1-0.1-0.1-0.2-0.1-0.3c0-0.2,0.1-0.4,0.2-0.6c0.1-0.2,0.3-0.3,0.5-0.3c0.1,0,0.2,0,0.3,0.1
				c0.1,0.1,0.1,0.2,0.1,0.3c0,0.3-0.1,0.5-0.2,0.7C390.8,96.3,390.6,96.4,390.4,96.4z"/>
			<path class="st0" d="M390.7,101.3v-0.7c0.4-0.3,0.8-0.6,1.1-0.9c0.3-0.3,0.5-0.6,0.6-0.7l0.7-1.5l0.7,0l-2,4.2
				c1.6-1.6,2.8-2.7,3.6-3.3c0.8-0.7,1.4-1,1.7-1c0.1,0,0.1,0,0.2,0.1c0,0,0,0.1,0,0.1c0,0,0,0.1,0,0.2c0,0.1,0,0.1,0,0.2
				c0,0.1,0,0.1-0.1,0.2c0,0.1-0.1,0.2-0.1,0.3l-1.7,3.7l-0.1,0.2l0,0.1l0,0.1c0,0,0,0,0.1,0c0.1,0,0.4-0.2,0.9-0.5
				c0.5-0.4,1.2-0.9,2-1.5v0.7l-0.4,0.3c-1.8,1.4-2.9,2.1-3.2,2.1c-0.1,0-0.2,0-0.2-0.1c-0.1-0.1-0.1-0.2-0.1-0.3c0,0,0-0.1,0.1-0.2
				c0-0.1,0.1-0.2,0.2-0.4l1.6-3.4l0.2-0.3l0-0.1c0-0.1,0-0.1,0-0.1l0,0c-0.1,0-0.3,0.1-0.6,0.4c-0.4,0.3-0.7,0.6-1.1,1
				c-0.5,0.5-1,0.9-1.5,1.4c-0.4,0.5-0.9,0.9-1.2,1.3l-0.2,0.3c-0.3,0.4-0.6,0.7-0.9,0.7c-0.1,0-0.2,0-0.2-0.1
				c-0.1-0.1-0.1-0.2-0.1-0.3c0-0.2,0.2-0.7,0.7-1.6l0.5-1l-0.6,0.5C391.1,101.1,390.9,101.2,390.7,101.3z"/>
			<path class="st0" d="M399.2,100.5l-0.6,0.5c0,0-0.1,0.1-0.3,0.2c-0.1,0.1-0.2,0.1-0.2,0.2v-0.7c0.2-0.2,0.4-0.3,0.6-0.5
				c0.2-0.2,0.4-0.3,0.5-0.5c0.3-0.3,0.5-0.5,0.6-0.7l3-6.7c0.2-0.4,0.3-0.6,0.4-0.8s0.2-0.2,0.3-0.2c0.1,0,0.1,0,0.2,0.1
				c0.1,0.1,0.1,0.1,0.1,0.2c0,0.3-0.3,1.1-1,2.5l-1,2l-2.2,4.8c1.2-1.4,2.1-2.4,2.6-2.8c0.6-0.5,1.1-0.7,1.5-0.7
				c0.3,0,0.5,0.1,0.6,0.3c0.2,0.2,0.2,0.4,0.2,0.7c0,0.6-0.3,1.2-0.9,1.8c-0.6,0.6-1.3,1-2.3,1.3c-0.1,0.1-0.1,0.2-0.1,0.3
				c0,0.1-0.1,0.2-0.1,0.3c0,0.2,0.1,0.4,0.2,0.5c0.1,0.1,0.3,0.2,0.5,0.2c0.4,0,1.6-0.8,3.5-2.3l0.1-0.1v0.7
				c-2,1.5-3.2,2.3-3.7,2.3c-0.4,0-0.7-0.1-1-0.4c-0.2-0.2-0.4-0.5-0.4-0.9c0-0.2,0-0.4,0.1-0.6c0.1-0.2,0.2-0.4,0.3-0.6
				c0.8-0.2,1.5-0.6,2.1-1.1c0.5-0.5,0.8-1,0.8-1.4c0-0.1,0-0.2-0.1-0.3c-0.1-0.1-0.1-0.1-0.3-0.1c-0.2,0-0.6,0.2-1.1,0.6
				c-0.2,0.2-0.5,0.5-0.8,0.8c-0.3,0.3-0.6,0.6-0.9,1c-0.5,0.5-1,1.2-1.5,1.9c-0.5,0.7-0.8,1-1,1c-0.1,0-0.2,0-0.2-0.1
				c0,0-0.1-0.1-0.1-0.2c0-0.1,0.1-0.5,0.4-1l0-0.1L399.2,100.5z"/>
			<path class="st0" d="M406.4,102.1l-0.1,0.1l0,0.1c0,0.1,0,0.1,0,0.1c0,0,0,0,0.1,0c0.1,0,0.4-0.2,0.9-0.5c0.5-0.4,1.2-0.9,2-1.5
				v0.7l-0.4,0.3c-1.8,1.4-2.9,2.1-3.2,2.1c-0.1,0-0.2,0-0.2-0.1c-0.1-0.1-0.1-0.2-0.1-0.3c0-0.1,0-0.1,0-0.3c0-0.1,0.1-0.2,0.1-0.3
				l1-2L406,101c-0.2,0.1-0.3,0.2-0.5,0.4v-0.7c0.4-0.3,0.8-0.6,1.1-0.9c0.3-0.3,0.5-0.6,0.6-0.7l0.7-1.5l0.7,0L406.4,102.1z
				 M408.7,96.4c-0.1,0-0.2,0-0.3-0.1c-0.1-0.1-0.1-0.2-0.1-0.3c0-0.2,0.1-0.4,0.2-0.6c0.1-0.2,0.3-0.3,0.5-0.3c0.1,0,0.2,0,0.3,0.1
				c0.1,0.1,0.1,0.2,0.1,0.3c0,0.3-0.1,0.5-0.2,0.7C409.1,96.3,408.9,96.4,408.7,96.4z"/>
			<path class="st0" d="M409,101.3v-0.7c0.4-0.3,0.8-0.6,1.1-0.9c0.3-0.3,0.5-0.6,0.6-0.7l0.7-1.5l0.7,0l-2,4.2
				c1.6-1.6,2.8-2.7,3.6-3.3c0.8-0.7,1.4-1,1.7-1c0.1,0,0.1,0,0.2,0.1c0,0,0,0.1,0,0.1c0,0,0,0.1,0,0.2c0,0.1,0,0.1,0,0.2
				c0,0.1,0,0.1-0.1,0.2c0,0.1-0.1,0.2-0.1,0.3l-1.7,3.7l-0.1,0.2l0,0.1l0,0.1c0,0,0,0,0.1,0c0.1,0,0.4-0.2,0.9-0.5
				c0.5-0.4,1.2-0.9,2-1.5v0.7l-0.4,0.3c-1.8,1.4-2.9,2.1-3.2,2.1c-0.1,0-0.2,0-0.2-0.1c-0.1-0.1-0.1-0.2-0.1-0.3c0,0,0-0.1,0-0.2
				c0-0.1,0.1-0.2,0.2-0.4l1.6-3.4l0.2-0.3l0-0.1c0-0.1,0-0.1,0-0.1l0,0c-0.1,0-0.3,0.1-0.6,0.4c-0.4,0.3-0.7,0.6-1.1,1
				c-0.5,0.5-1,0.9-1.5,1.4c-0.4,0.5-0.9,0.9-1.2,1.3l-0.2,0.3c-0.3,0.4-0.6,0.7-0.9,0.7c-0.1,0-0.2,0-0.2-0.1
				c-0.1-0.1-0.1-0.2-0.1-0.3c0-0.2,0.2-0.7,0.7-1.6l0.5-1l-0.6,0.5C409.4,101.1,409.2,101.2,409,101.3z"/>
			<path class="st0" d="M423.6,100.5v0.7c-0.4,0.3-0.8,0.6-1.1,0.9c-0.4,0.3-0.7,0.6-1.1,0.9c-0.3,0.3-0.7,0.6-1,1
				c-0.3,0.3-0.7,0.7-1,1.1c-0.5,1.3-0.9,2.2-1.2,2.6c-0.2,0.4-0.5,0.6-0.7,0.6c-0.1,0-0.2,0-0.2-0.1c-0.1-0.1-0.1-0.2-0.1-0.3
				c0-0.4,0.2-1,0.5-1.7c0.3-0.7,0.8-1.3,1.4-1.9l1.3-3c-0.6,0.8-1.2,1.4-1.6,1.8s-0.8,0.5-1.1,0.5c-0.4,0-0.7-0.2-1-0.5
				c-0.3-0.4-0.4-0.8-0.4-1.4c0-0.4,0.1-0.9,0.3-1.2c0.2-0.4,0.5-0.8,0.8-1.1c0.5-0.5,1.2-1,1.9-1.3c0.7-0.3,1.4-0.5,2-0.5
				c0.3,0,0.7,0.1,0.9,0.2c0.3,0.1,0.5,0.3,0.7,0.5l-0.3,0.5c-0.2-0.2-0.4-0.4-0.6-0.5c-0.2-0.1-0.5-0.2-0.7-0.2
				c-0.4,0-0.9,0.1-1.5,0.4c-0.6,0.2-1.1,0.6-1.6,1c-0.4,0.3-0.7,0.7-0.9,1.1s-0.3,0.8-0.3,1.2c0,0.4,0.1,0.7,0.2,0.9
				c0.1,0.2,0.3,0.3,0.6,0.3c0.3,0,0.7-0.3,1.3-0.9c0.6-0.6,1.4-1.5,2.3-2.8l0.7,0l-1.9,4.1l1.6-1.3
				C422.3,101.4,422.9,101,423.6,100.5z"/>
			<path class="st0" d="M434.4,99.8c-0.6,1.1-1.4,2-2.4,2.7c-1,0.7-1.9,1-2.9,1c-0.6,0-1.1-0.2-1.5-0.5s-0.5-0.8-0.5-1.3
				c0-0.5,0.2-1.1,0.7-1.6c0.4-0.5,1.1-1,2.1-1.6c-0.2-0.3-0.4-0.6-0.5-1c-0.1-0.2-0.1-0.3-0.1-0.5c0-0.2,0-0.4,0-0.6
				c0-0.3,0-0.5,0.1-0.8c0.1-0.3,0.2-0.5,0.3-0.8c0.3-0.6,0.6-1.1,1.1-1.5c0.5-0.4,1-0.8,1.6-1.1c0.6-0.3,1.2-0.4,1.7-0.4
				c0.5,0,0.8,0.1,1.1,0.3c0.3,0.2,0.4,0.5,0.4,0.8c0,0.4-0.6,1.3-1.8,2.8l-0.7,0.8l-0.4-0.5l0.8-0.9c1-1.2,1.5-2,1.5-2.3
				c0-0.1-0.1-0.3-0.3-0.4c-0.2-0.1-0.4-0.1-0.7-0.1c-0.3,0-0.7,0.1-1.2,0.3c-0.4,0.2-0.9,0.5-1.3,0.9c-0.5,0.4-0.9,0.9-1.1,1.4
				c-0.3,0.5-0.4,1-0.4,1.5c0,0.3,0.1,0.7,0.2,1s0.4,0.8,0.7,1.2c-1,0.5-1.7,1-2.2,1.5c-0.4,0.5-0.7,0.9-0.7,1.4
				c0,0.4,0.1,0.7,0.4,0.9c0.1,0.1,0.3,0.2,0.4,0.2c0.2,0.1,0.3,0.1,0.6,0.1c0.8,0,1.6-0.3,2.4-0.8c0.8-0.5,1.5-1.3,2.1-2.2H434.4z"
				/>
			<path class="st0" d="M442.2,100.5v0.7l-0.5,0.3c-1.7,1.3-2.7,2-3.1,2c-0.2,0-0.4-0.1-0.5-0.3c-0.1-0.2-0.2-0.5-0.2-0.9v-0.2
				c-0.5,0.4-0.9,0.8-1.2,1c-0.4,0.2-0.7,0.3-1,0.3c-0.4,0-0.8-0.2-1.1-0.5c-0.3-0.4-0.4-0.8-0.4-1.4c0-1.1,0.4-2.1,1.3-3
				c0.4-0.4,0.9-0.7,1.5-0.9c0.5-0.2,1.1-0.3,1.8-0.3h0c0.6-1.8,1.2-3.2,1.8-4.3c0.6-1.1,1.1-1.6,1.4-1.6c0.1,0,0.2,0.1,0.2,0.2
				c0.1,0.1,0.1,0.3,0.1,0.6c0,0.4-0.1,1-0.3,1.8c-0.1,0.4-0.2,0.8-0.4,1.2c-0.1,0.4-0.3,0.9-0.5,1.4c-0.2,0.5-0.4,1-0.6,1.4
				c-0.2,0.4-0.4,0.9-0.7,1.3c-0.4,0.8-0.9,1.6-1.4,2.2l0,0.3v0.3c0,0.2,0,0.4,0.1,0.5c0.1,0.1,0.2,0.2,0.3,0.2
				c0.2,0,1.1-0.6,2.6-1.8L442.2,100.5z M438,101.1c0-0.4,0.1-0.8,0.2-1.3c0.1-0.3,0.1-0.6,0.2-0.8c0.1-0.3,0.2-0.6,0.3-1.1h0
				c-1,0-1.8,0.4-2.6,1.1c-0.8,0.7-1.1,1.5-1.1,2.4c0,0.4,0.1,0.7,0.2,1c0.2,0.3,0.4,0.4,0.6,0.4c0.2,0,0.5-0.1,0.8-0.4
				C437.1,102.1,437.5,101.7,438,101.1z M438.8,100c0.8-1.4,1.5-2.8,2.1-4.2c0.3-0.7,0.5-1.4,0.6-1.9s0.2-1,0.2-1.5
				c-0.3,0.4-0.5,0.8-0.8,1.3c-0.3,0.5-0.5,1.1-0.8,1.8s-0.5,1.4-0.7,2.1C439.2,98.4,439,99.2,438.8,100z"/>
			<path class="st0" d="M446.8,102.1l-0.1,0.2l0,0.1l0,0.1c0,0,0,0,0.1,0c0.1,0,0.3-0.2,0.8-0.5c0.5-0.3,1.1-0.8,2-1.5v0.7
				c-0.6,0.5-1.1,0.8-1.5,1.1c-0.4,0.3-0.7,0.5-1,0.7c-0.5,0.3-0.9,0.5-1.1,0.5c-0.1,0-0.2,0-0.2-0.1c-0.1-0.1-0.1-0.2-0.1-0.3
				c0-0.1,0-0.1,0-0.3c0,0,0-0.1,0.1-0.2c0-0.1,0-0.1,0.1-0.2l1.5-3.2c-1.2,1.3-2.3,2.3-3.2,3.1c-0.9,0.8-1.5,1.1-1.9,1.1
				c-0.1,0-0.2,0-0.3-0.1c-0.1-0.1-0.1-0.2-0.1-0.4c0-0.1,0-0.2,0.1-0.3c0-0.1,0.1-0.2,0.1-0.3l1-1.9l-0.5,0.5
				c-0.2,0.1-0.4,0.3-0.6,0.4v-0.7c0.4-0.3,0.8-0.6,1.1-1c0.3-0.3,0.5-0.6,0.6-0.7l0.7-1.5l0.7,0l-2.1,4.3L443,102l0,0.1
				c0,0.1,0,0.1,0,0.2s0,0.1,0.1,0.1c0.2,0,0.8-0.5,1.9-1.4c0.5-0.5,1.1-1,1.6-1.6c0.5-0.5,1.1-1.2,1.6-1.8h0.7L446.8,102.1z"/>
			<path class="st0" d="M454.9,100.5v0.7c-0.6,0.5-1.1,0.9-1.6,1.2c-0.4,0.3-0.8,0.5-1.1,0.7c-0.5,0.3-1,0.4-1.5,0.4
				c-0.5,0-0.9-0.2-1.2-0.5c-0.3-0.3-0.4-0.8-0.4-1.3c0-0.5,0.1-0.9,0.3-1.4c0.2-0.5,0.5-0.9,0.8-1.3c0.4-0.5,0.9-0.8,1.4-1.1
				c0.5-0.3,1-0.4,1.5-0.4c0.3,0,0.6,0.1,0.8,0.2c0.2,0.1,0.3,0.3,0.3,0.6c0,0.1,0,0.2,0,0.3c0,0.1-0.1,0.2-0.1,0.3l-0.5,1.1
				l-0.6-0.2l0.5-1.1l0.1-0.2l0-0.1c0-0.1,0-0.2-0.1-0.3c-0.1-0.1-0.2-0.1-0.3-0.1c-0.4,0-0.8,0.1-1.3,0.4s-0.9,0.6-1.3,1.1
				c-0.3,0.3-0.5,0.7-0.6,1.1c-0.1,0.4-0.2,0.8-0.2,1.2c0,0.4,0.1,0.7,0.3,0.9c0.2,0.2,0.5,0.3,0.8,0.3c0.6,0,1.8-0.7,3.6-2.1
				L454.9,100.5z"/>
			<path class="st0" d="M459,102.1l-0.1,0.2l0,0.1c0,0,0,0.1,0,0.1c0,0,0,0.1,0.1,0.1c0.1,0,0.4-0.2,0.9-0.5c0.5-0.4,1.2-0.9,2-1.5
				v0.7l-0.2,0.2c-1.9,1.5-3,2.2-3.4,2.2c-0.1,0-0.2,0-0.2-0.1c-0.1-0.1-0.1-0.2-0.1-0.3c0-0.1,0-0.1,0.1-0.3c0,0,0-0.1,0-0.1
				c0-0.1,0.1-0.2,0.1-0.3l0.5-1.2c-0.5,0.8-1,1.4-1.4,1.7c-0.4,0.3-0.8,0.5-1.2,0.5c-0.4,0-0.7-0.2-1-0.5c-0.3-0.3-0.4-0.8-0.4-1.4
				c0-0.4,0.1-0.8,0.2-1.2c0.2-0.4,0.4-0.7,0.7-1.1c0.5-0.6,1.2-1,1.9-1.4c0.7-0.4,1.5-0.5,2.1-0.5c0.3,0,0.5,0,0.8,0.1
				c0.2,0,0.4,0.1,0.6,0.3l0,0.6c-0.2-0.1-0.4-0.2-0.7-0.3c-0.2-0.1-0.5-0.1-0.7-0.1c-0.6,0-1.2,0.2-1.9,0.5
				c-0.7,0.3-1.2,0.7-1.6,1.2c-0.3,0.3-0.5,0.6-0.6,1c-0.1,0.3-0.2,0.7-0.2,1c0,0.4,0.1,0.7,0.2,0.9c0.2,0.2,0.4,0.3,0.6,0.3
				c0.3,0,0.7-0.3,1.2-0.8c0.5-0.5,1.3-1.6,2.4-3.3l0.6,0.1L459,102.1z"/>
			<path class="st0" d="M462.3,101.8l0.7-1.6c-0.2,0.2-0.3,0.3-0.4,0.4c-0.1,0.1-0.3,0.2-0.4,0.3c-0.2,0.2-0.4,0.3-0.7,0.5v-0.7
				c0.5-0.4,0.9-0.7,1.3-1.1c0.4-0.4,0.6-0.6,0.6-0.6l1-2.4H463l0.3-0.5h1.5l1-2.3l0.1-0.2c0.3-0.7,0.5-1,0.7-1c0.1,0,0.2,0,0.2,0.1
				c0.1,0.1,0.1,0.1,0.1,0.2c0,0.1,0,0.2-0.1,0.3c0,0.1,0,0.1-0.1,0.2c0,0.1-0.1,0.2-0.1,0.3l-1,2.3l1.2,0l-0.2,0.5l-1.2,0l-2.1,5.2
				l-0.1,0.2c-0.1,0.3-0.2,0.5-0.2,0.5c0,0.1,0,0.2,0.1,0.2c0,0,0.1,0.1,0.2,0.1c0.2,0,1-0.5,2.4-1.6l0.8-0.6v0.7
				c-2.1,1.5-3.3,2.3-3.8,2.3c-0.2,0-0.3,0-0.4-0.1c-0.1-0.1-0.1-0.2-0.1-0.4c0-0.2,0.1-0.4,0.2-0.8L462.3,101.8z"/>
			<path class="st0" d="M467.1,102.1l-0.1,0.1l0,0.1c0,0.1,0,0.1,0,0.1c0,0,0,0,0.1,0c0.1,0,0.4-0.2,0.9-0.5c0.5-0.4,1.2-0.9,2-1.5
				v0.7l-0.4,0.3c-1.8,1.4-2.9,2.1-3.2,2.1c-0.1,0-0.2,0-0.2-0.1c-0.1-0.1-0.1-0.2-0.1-0.3c0-0.1,0-0.1,0-0.3c0-0.1,0.1-0.2,0.1-0.3
				l1-2l-0.6,0.5c-0.2,0.1-0.3,0.2-0.5,0.4v-0.7c0.4-0.3,0.8-0.6,1.1-0.9c0.3-0.3,0.5-0.6,0.6-0.7l0.7-1.5l0.7,0L467.1,102.1z
				 M469.4,96.4c-0.1,0-0.2,0-0.3-0.1c-0.1-0.1-0.1-0.2-0.1-0.3c0-0.2,0.1-0.4,0.2-0.6c0.1-0.2,0.3-0.3,0.5-0.3c0.1,0,0.2,0,0.3,0.1
				c0.1,0.1,0.1,0.2,0.1,0.3c0,0.3-0.1,0.5-0.2,0.7C469.8,96.3,469.6,96.4,469.4,96.4z"/>
			<path class="st0" d="M475.7,100.4v0.7c-0.2,0.2-0.4,0.3-0.6,0.5c-0.2,0.1-0.3,0.2-0.5,0.3c-0.3,0.1-0.6,0.2-0.8,0.2l-0.2,0
				c0,0-0.1,0-0.1,0c-0.4,0.5-0.8,0.8-1.2,1.1c-0.4,0.2-0.7,0.4-1.1,0.4c-0.5,0-0.8-0.2-1.1-0.5c-0.3-0.3-0.4-0.8-0.4-1.4
				c0-0.7,0.2-1.3,0.5-2c0.4-0.6,0.8-1.2,1.5-1.7c0.3-0.2,0.6-0.4,0.9-0.5c0.3-0.1,0.6-0.2,0.7-0.2c0.1,0,0.1,0,0.1,0.1
				c0,0,0.1,0.1,0.1,0.2c0,0.1-0.2,0.3-0.5,0.4c-0.3,0.1-0.6,0.3-0.8,0.4c-0.5,0.3-1,0.8-1.3,1.4c-0.4,0.6-0.5,1.2-0.5,1.8
				c0,0.4,0.1,0.7,0.3,0.9c0.2,0.3,0.4,0.4,0.7,0.4c0.2,0,0.5-0.1,0.8-0.3c0.3-0.2,0.6-0.5,1-0.9c-0.1-0.2-0.2-0.4-0.3-0.6
				c-0.1-0.2-0.1-0.4-0.1-0.7c0-0.6,0.2-1.1,0.5-1.6c0.3-0.5,0.6-0.7,1-0.7c0.2,0,0.4,0.1,0.5,0.3c0.1,0.2,0.2,0.4,0.2,0.7
				c0,0.3-0.1,0.7-0.2,1.1c-0.2,0.4-0.4,0.9-0.7,1.3h0c0.2,0,0.4-0.1,0.7-0.2C474.8,101.1,475.2,100.8,475.7,100.4z M473.4,101.1
				c0.2-0.4,0.4-0.8,0.6-1.2c0.1-0.3,0.2-0.6,0.2-0.8c0-0.1,0-0.2-0.1-0.2c-0.1-0.1-0.1-0.1-0.2-0.1c-0.1,0-0.3,0.2-0.5,0.5
				c-0.2,0.3-0.2,0.7-0.2,1c0,0.1,0,0.2,0,0.4C473.3,100.8,473.4,100.9,473.4,101.1z"/>
			<path class="st0" d="M475.4,101.3v-0.7c0.4-0.3,0.8-0.6,1.1-0.9c0.3-0.3,0.5-0.6,0.6-0.7l0.7-1.5l0.7,0l-2,4.2
				c1.6-1.6,2.8-2.7,3.6-3.3c0.8-0.7,1.4-1,1.7-1c0.1,0,0.1,0,0.2,0.1c0,0,0,0.1,0,0.1c0,0,0,0.1,0,0.2c0,0.1,0,0.1,0,0.2
				c0,0.1,0,0.1-0.1,0.2c0,0.1-0.1,0.2-0.1,0.3l-1.7,3.7l-0.1,0.2l0,0.1l0,0.1c0,0,0,0,0.1,0c0.1,0,0.4-0.2,0.9-0.5
				c0.5-0.4,1.2-0.9,2-1.5v0.7l-0.4,0.3c-1.8,1.4-2.9,2.1-3.2,2.1c-0.1,0-0.2,0-0.2-0.1c-0.1-0.1-0.1-0.2-0.1-0.3c0,0,0-0.1,0.1-0.2
				c0-0.1,0.1-0.2,0.2-0.4L481,99l0.2-0.3l0-0.1c0-0.1,0-0.1,0-0.1l0,0c-0.1,0-0.3,0.1-0.6,0.4c-0.4,0.3-0.7,0.6-1.1,1
				c-0.5,0.5-1,0.9-1.5,1.4c-0.4,0.5-0.9,0.9-1.2,1.3l-0.2,0.3c-0.3,0.4-0.6,0.7-0.9,0.7c-0.1,0-0.2,0-0.2-0.1
				c-0.1-0.1-0.1-0.2-0.1-0.3c0-0.2,0.2-0.7,0.7-1.6l0.5-1l-0.6,0.5C475.8,101.1,475.6,101.2,475.4,101.3z"/>
		</g>
	</g>
</g>
</svg>
