<?xml version="1.0" encoding="UTF-8"?>
<svg id="Layer_1" data-name="Layer 1" xmlns="http://www.w3.org/2000/svg" viewBox="0 0 140.54 25.41">
  <defs>
    <style>
      .cls-1, .cls-2, .cls-3, .cls-4, .cls-5 {
        stroke-width: 0px;
      }

      .cls-2 {
        fill: #fc3fec;
      }

      .cls-3 {
        fill: #ff4e3e;
      }

      .cls-4 {
        fill: #fc3f7b;
      }

      .cls-5 {
        fill: #893ffc;
      }
    </style>
  </defs>
  <path class="cls-1" d="M20.24,24.88h-3.72v-10.02H3.92v10.02H.2V1.56h3.72v9.88h12.6V1.56h3.72v23.32Z"/>
  <path class="cls-1" d="M29.46.83c.44.44.66.97.66,1.6s-.21,1.18-.64,1.6c-.43.42-.98.63-1.65.63s-1.23-.21-1.67-.63c-.44-.42-.66-.95-.66-1.6s.22-1.16.66-1.6c.44-.44,1-.66,1.67-.66s1.19.22,1.64.66ZM26.02,24.88V7.62h3.62v17.26h-3.62Z"/>
  <path class="cls-1" d="M46.8,7.55l-.24,3.48c-.19-.02-.52-.04-1.01-.04-2.13,0-3.76.69-4.87,2.07-1.11,1.38-1.67,3.29-1.67,5.73v6.09h-3.62V7.62h3.62v3.69c1.58-2.6,3.77-3.9,6.58-3.9.51,0,.92.05,1.22.14Z"/>
  <path class="cls-1" d="M65.76,17.12h-13.99c.16,1.55.74,2.8,1.74,3.72,1,.93,2.16,1.39,3.48,1.39,2.39,0,4.08-1,5.08-2.99l3.24.7c-.7,1.79-1.77,3.14-3.22,4.05-1.45.92-3.15,1.38-5.1,1.38-2.41,0-4.48-.85-6.21-2.54-1.73-1.69-2.59-3.88-2.59-6.54s.86-4.89,2.59-6.6c1.73-1.71,3.85-2.56,6.35-2.56,2.34,0,4.35.82,6,2.45,1.66,1.64,2.54,3.73,2.63,6.28v1.25ZM53.79,11.45c-1.02.74-1.66,1.77-1.91,3.1h10.16c-.28-1.37-.86-2.41-1.74-3.13s-1.94-1.08-3.17-1.08-2.32.37-3.34,1.11Z"/>
  <path class="cls-1" d="M94.82,24.88h-16.46V1.56h3.72v19.94h12.74v3.38Z"/>
  <path class="cls-1" d="M101.3.96c.44.44.66.97.66,1.6s-.21,1.18-.64,1.6c-.43.42-.98.63-1.65.63s-1.23-.21-1.67-.63c-.44-.42-.66-.95-.66-1.6s.22-1.16.66-1.6c.44-.44,1-.66,1.67-.66s1.19.22,1.64.66ZM97.85,25.01V7.75h3.62v17.26h-3.62Z"/>
  <path class="cls-1" d="M129.07,19.49c.12.97.56,1.71,1.34,2.19s1.77.73,2.98.73c1.04,0,1.87-.21,2.49-.63.62-.42.92-.97.92-1.67,0-1.02-.78-1.71-2.33-2.05l-3.76-.77c-3.13-.7-4.7-2.26-4.7-4.7,0-1.62.62-2.94,1.86-3.95,1.24-1.01,2.89-1.51,4.96-1.51,1.95,0,3.57.46,4.86,1.38,1.29.92,2.09,2.12,2.42,3.6l-3.45.73c-.14-.86-.56-1.54-1.25-2.05-.7-.51-1.59-.77-2.68-.77-1,0-1.76.21-2.28.64-.52.43-.78.97-.78,1.62,0,.97.7,1.62,2.09,1.95l4.11.91c1.42.3,2.52.85,3.31,1.65.79.8,1.18,1.8,1.18,3.01,0,1.76-.66,3.13-1.98,4.11-1.32.97-3.09,1.46-5.29,1.46-2.04,0-3.77-.44-5.19-1.31-1.42-.87-2.23-2.14-2.44-3.81l3.62-.77Z"/>
  <g>
    <path class="cls-5" d="M109.89,20.6c-.81-.81-1.31-1.73-1.55-2.78h-3.37c.34,1.86,1.24,3.53,2.7,4.99s3.05,2.31,4.87,2.66v-3.39c-1.01-.24-1.89-.72-2.65-1.48Z"/>
    <path class="cls-4" d="M120.59,22.93c1.52-1.52,2.38-3.22,2.63-5.12h-3.54c-.27.95-.78,1.83-1.58,2.63s-1.64,1.28-2.57,1.56v3.55c1.87-.26,3.56-1.12,5.05-2.62Z"/>
    <path class="cls-2" d="M118.26,12.23c.74.74,1.22,1.61,1.46,2.59h3.39c-.37-1.77-1.25-3.37-2.66-4.78s-3.08-2.34-4.9-2.7v3.36c1.02.24,1.93.74,2.71,1.53Z"/>
    <path class="cls-3" d="M107.5,9.84c-1.47,1.47-2.33,3.13-2.6,4.98h3.58c.29-.88.78-1.71,1.53-2.47s1.62-1.27,2.53-1.55v-3.56c-1.87.25-3.55,1.11-5.04,2.6Z"/>
  </g>
</svg>